<?xml version="1.0" encoding="UTF-8"?>
<svg width="410" height="404" viewBox="0 0 410 404" fill="none" xmlns="http://www.w3.org/2000/svg">
  <path d="M399.641 59.5246L216.394 388.865C211.844 397.174 200.084 397.169 195.54 388.856L10.3653 59.5301C5.4061 50.3742 12.6017 39.158 22.8928 40.2071L205.223 58.8026C206.398 58.9214 207.582 58.9214 208.757 58.8026L387.081 40.2227C397.362 39.1683 404.572 50.3561 399.632 59.5177L399.641 59.5246Z" fill="url(#paint0_linear)"/>
  <path d="M292.965 1.57436L156.801 13.5576C155.563 13.6662 154.403 14.1933 153.547 15.0321C152.69 15.871 152.202 16.9655 152.166 18.1155L146.459 196.888C146.437 197.562 146.559 198.233 146.816 198.856C147.074 199.479 147.461 200.041 147.953 200.507C148.444 200.972 149.029 201.333 149.668 201.567C150.306 201.8 150.984 201.901 151.662 201.862L197.622 199.205C198.858 199.133 199.978 198.621 200.803 197.77C201.628 196.919 202.103 195.789 202.137 194.607L204.273 118.889C204.289 118.315 204.545 117.773 204.974 117.392C205.403 117.011 205.966 116.822 206.535 116.867L233.783 119.048C235.033 119.153 236.224 119.689 237.085 120.551C237.947 121.414 238.482 122.606 238.584 123.856L241.688 161.807C241.753 162.626 242.056 163.412 242.562 164.077C243.068 164.742 243.756 165.257 244.552 165.566C245.348 165.876 246.222 165.968 247.071 165.831L289.04 159.088C290.225 158.896 291.293 158.288 292.038 157.37C292.783 156.452 293.155 155.29 293.093 154.111L286.127 18.9985C286.062 17.7782 285.527 16.6294 284.641 15.7834C283.756 14.9374 282.587 14.4583 281.357 14.4285L293.135 1.65208C293.135 1.65208 292.965 1.57436 292.965 1.57436Z" fill="url(#paint1_linear)"/>
  <defs>
    <linearGradient id="paint0_linear" x1="6.00017" y1="32.9999" x2="235" y2="344" gradientUnits="userSpaceOnUse">
      <stop stop-color="#41D1FF"/>
      <stop offset="1" stop-color="#BD34FE"/>
    </linearGradient>
    <linearGradient id="paint1_linear" x1="194.651" y1="8.81818" x2="236.076" y2="292.989" gradientUnits="userSpaceOnUse">
      <stop stop-color="#FFEA83"/>
      <stop offset="0.0833333" stop-color="#FFDD35"/>
      <stop offset="1" stop-color="#FFA800"/>
    </linearGradient>
  </defs>
</svg>
